<svg xmlns="http://www.w3.org/2000/svg" version="1.1" xmlns:xlink="http://www.w3.org/1999/xlink" xmlns:svgjs="http://svgjs.dev/svgjs" width="64" height="64"><svg version="1.1" xmlns="http://www.w3.org/2000/svg" width="64" height="64">
<path d="M0 0 C1.42220015 0.87520009 2.82354063 1.78654615 4.1875 2.75 C5.54875 3.61625 5.54875 3.61625 6.9375 4.5 C15.08311555 12.64561555 17.61443604 20.68789995 17.62792969 31.86401367 C17.48159982 38.42823836 16.09173677 43.37653729 12.1875 48.75 C11.58550781 49.58402344 10.98351563 50.41804688 10.36328125 51.27734375 C7.99353524 53.97043033 5.67430786 55.62477938 2.625 57.5 C1.67496094 58.09296875 0.72492187 58.6859375 -0.25390625 59.296875 C-7.08829998 63.17839327 -16.14054408 62.58210683 -23.8125 61.75 C-27.60632029 60.60452286 -30.58768312 59.0278994 -33.8125 56.75 C-34.72 56.1725 -35.6275 55.595 -36.5625 55 C-44.70811555 46.85438445 -47.23943604 38.81210005 -47.25292969 27.63598633 C-47.10659982 21.07176164 -45.71673677 16.12346271 -41.8125 10.75 C-41.21050781 9.91597656 -40.60851563 9.08195313 -39.98828125 8.22265625 C-37.61853524 5.52956967 -35.29930786 3.87522062 -32.25 2 C-31.29996094 1.40703125 -30.34992187 0.8140625 -29.37109375 0.203125 C-21.49098949 -4.27229299 -8.11028452 -4.00598902 0 0 Z " fill="#44A7F0" transform="translate(46.8125,2.25)"></path>
<path d="M0 0 C2.60611077 0.72197162 2.60611077 0.72197162 5 1 C5.99 0.34 6.98 -0.32 8 -1 C11.11365317 -0.80125618 13.47940804 -0.2391909 16.3125 1.0625 C18.54446636 3.62512804 18.29969919 5.8120581 18.51953125 9.09765625 C18.8676608 11.40950991 18.8676608 11.40950991 22.0625 12.875 C25 15 25 15 25.60546875 17.3203125 C25.75439072 20.08140634 25.70000685 22.32190927 25 25 C23.03277992 26.38123963 21.03131672 27.71488126 19 29 C18.52608641 31.16369985 18.52608641 31.16369985 18.5 33.5625 C18.38671875 35.93359375 18.38671875 35.93359375 18 38 C14.77578371 40.54938033 13.0230711 41.08351601 8.9375 40.75 C7.06239371 40.27124946 5.18738373 39.79212142 3.3125 39.3125 C0.72808857 38.70379142 0.72808857 38.70379142 -2 41 C-5.11365317 40.80125618 -7.47940804 40.2391909 -10.3125 38.9375 C-12.54446636 36.37487196 -12.29969919 34.1879419 -12.51953125 30.90234375 C-12.8676608 28.59049009 -12.8676608 28.59049009 -16.0625 27.125 C-19 25 -19 25 -19.60546875 22.6796875 C-19.75441336 19.91817385 -19.69899369 17.67872419 -19 15 C-16.0625 12.875 -16.0625 12.875 -13 11 C-12.52692004 9.10364888 -12.52692004 9.10364888 -12.5 7 C-12.30285565 3.3630266 -12.18757009 3.1788459 -9.3125 0.4375 C-5.48602302 -1.22304661 -3.95885882 -1.0950035 0 0 Z " fill="#DDEEFC" transform="translate(29,12)"></path>
<path d="M0 0 C0.51871658 5.18716578 0.51871658 5.18716578 0 8 C-2.6875 10.625 -2.6875 10.625 -6 12 C-8.75 11.3125 -8.75 11.3125 -11 10 C-11.66 9.67 -12.32 9.34 -13 9 C-13.28784585 5.94883394 -13.42463173 3.04229824 -13 0 C-8.6488989 -4.47907466 -4.99656258 -2.49828129 0 0 Z " fill="#57B8F1" transform="translate(46,15)"></path>
<path d="M0 0 C1.11375 0.6496875 1.11375 0.6496875 2.25 1.3125 C2.91 1.6425 3.57 1.9725 4.25 2.3125 C4.53784585 5.36366606 4.67463173 8.27020176 4.25 11.3125 C2.125 13.5 2.125 13.5 -0.75 14.3125 C-4.28164296 13.55077309 -6.18871412 12.87378588 -8.75 10.3125 C-9.25 6.9375 -9.25 6.9375 -8.75 3.3125 C-4.17995169 -1.04498792 -4.17995169 -1.04498792 0 0 Z " fill="#4BA1F0" transform="translate(26.75,37.6875)"></path>
<path d="M0 0 C0.99 0.66 1.98 1.32 3 2 C3.64234124 7.05843729 3.64234124 7.05843729 3 10 C0.8125 12.0625 0.8125 12.0625 -2 13 C-5.5341312 12.74756206 -7.00316126 11.99789249 -10 10 C-10.64234124 4.94156271 -10.64234124 4.94156271 -10 2 C-6.66247656 -1.14680781 -4.27609412 -1.4628743 0 0 Z " fill="#54B4F1" transform="translate(50,26)"></path>
<path d="M0 0 C0.99 0.66 1.98 1.32 3 2 C3.64234124 7.05843729 3.64234124 7.05843729 3 10 C0.8125 12.0625 0.8125 12.0625 -2 13 C-5.5341312 12.74756206 -7.00316126 11.99789249 -10 10 C-10.64234124 4.94156271 -10.64234124 4.94156271 -10 2 C-6.66247656 -1.14680781 -4.27609412 -1.4628743 0 0 Z " fill="#4CA4F0" transform="translate(21,26)"></path>
<path d="M0 0 C0.70125 0.4125 1.4025 0.825 2.125 1.25 C2.125 3.91666667 2.125 6.58333333 2.125 9.25 C2.785 9.25 3.445 9.25 4.125 9.25 C4.125 9.91 4.125 10.57 4.125 11.25 C1.9375 13 1.9375 13 -0.875 14.25 C-4.07528195 13.41183092 -6.1093433 12.09377113 -8.875 10.25 C-9.4375 6.875 -9.4375 6.875 -8.875 3.25 C-4.29215237 -1.11969192 -4.29215237 -1.11969192 0 0 Z " fill="#49ABF0" transform="translate(26.875,12.75)"></path>
<path d="M0 0 C0 0.99 0 1.98 0 3 C-0.33 3 -0.66 3 -1 3 C-1 4.65 -1 6.3 -1 8 C-0.34 8 0.32 8 1 8 C0 11 0 11 -2.75 12.375 C-6 13 -6 13 -8.875 12.1875 C-11.31299807 9.6777961 -11.42604307 8.88779432 -11.625 5.5 C-11.42604307 2.11220568 -11.31299807 1.3222039 -8.875 -1.1875 C-5.23940866 -2.21494973 -3.40253648 -1.50344635 0 0 Z " fill="#42A3EF" transform="translate(44,39)"></path>
<path d="M0 0 C0.33 0.66 0.66 1.32 1 2 C0.67 2.33 0.34 2.66 0 3 C-0.04063832 4.66617115 -0.042721 6.33388095 0 8 C0.66 8 1.32 8 2 8 C1.375 9.9375 1.375 9.9375 0 12 C-3.28574213 13.07143765 -5.13933739 13.33973524 -8.375 12.0625 C-10.54396689 9.30958048 -10.57277417 7.31721255 -10.3828125 3.87890625 C-10 2 -10 2 -8.375 -0.0625 C-5.20288365 -1.31465119 -3.24046722 -0.93613497 0 0 Z " fill="#43A6EF" transform="translate(36,26)"></path>
<path d="M0 0 C2.3431213 0.25561323 4.67843403 0.59270772 7 1 C7.33 1.66 7.66 2.32 8 3 C7.01 3.495 7.01 3.495 6 4 C5.76179079 6.03270562 5.76179079 6.03270562 5.75 8.375 C5.52734375 10.828125 5.52734375 10.828125 5 13 C1.77578371 15.54938033 0.0230711 16.08351601 -4.0625 15.75 C-5.91805577 15.27624108 -7.77240396 14.79770372 -9.625 14.3125 C-12.43811781 13.94235292 -13.63583538 14.51145191 -16 16 C-15.67 15.01 -15.34 14.02 -15 13 C-12.9375 12.3125 -12.9375 12.3125 -11 12 C-11 9.36 -11 6.72 -11 4 C-10.34 4 -9.68 4 -9 4 C-9 6.64 -9 9.28 -9 12 C-4.37012923 13.76697745 -4.37012923 13.76697745 0.375 13.25 C2.14258418 12.0783929 2.14258418 12.0783929 3 10 C2.34 10 1.68 10 1 10 C0.34 7.69 -0.32 5.38 -1 3 C-0.01 3 0.98 3 2 3 C1.34 2.67 0.68 2.34 0 2 C0 1.34 0 0.68 0 0 Z " fill="#D6EAFB" transform="translate(42,37)"></path>
<path d="M0 0 C2.97 0.495 2.97 0.495 6 1 C6 3.64 6 6.28 6 9 C7.2065625 9.433125 7.2065625 9.433125 8.4375 9.875 C11 11 11 11 12 13 C12.13415472 15.6723621 12.04318541 18.32250488 12 21 C11.67 20.34 11.34 19.68 11 19 C10.34 19 9.68 19 9 19 C9 17.35 9 15.7 9 14 C8.34 14 7.68 14 7 14 C7.33 13.34 7.66 12.68 8 12 C5.08517222 11.19032562 3.53886783 10.78154007 0.6875 11.9375 C0.130625 12.288125 -0.42625 12.63875 -1 13 C-0.67 12.01 -0.34 11.02 0 10 C2.0625 9.3125 2.0625 9.3125 4 9 C4 8.34 4 7.68 4 7 C3.34 7 2.68 7 2 7 C1.34 4.69 0.68 2.38 0 0 Z " fill="#D1EAFB" transform="translate(27,15)"></path>
<path d="M0 0 C6.90872194 0.98520099 12.47100275 5.02411166 16.9453125 10.2890625 C19.64009495 14.18152604 21.26343262 17.28265838 22 22 C21.34 22.33 20.68 22.66 20 23 C19.6596875 22.20335938 19.319375 21.40671875 18.96875 20.5859375 C14.36099954 10.51261071 9.25482369 5.84555888 -1 2 C-0.67 1.34 -0.34 0.68 0 0 Z " fill="#50C7FA" transform="translate(41,1)"></path>
<path d="M0 0 C0.33 0 0.66 0 1 0 C1.04125 1.2375 1.0825 2.475 1.125 3.75 C1.30717839 5.98095461 1.30717839 5.98095461 2 8 C3.010625 8.61875 4.02125 9.2375 5.0625 9.875 C6.031875 10.57625 7.00125 11.2775 8 12 C8.54241082 15.38335462 8.35019345 18.60182656 8 22 C6.35 22.66 4.7 23.32 3 24 C3.495 23.67 3.99 23.34 4.5 23 C6.88179561 19.82427253 6.19168226 16.89753934 6 13 C3.51229865 11.43366952 2.34447796 10.95899072 -0.625 11.3125 C-2.98940187 11.91933648 -2.98940187 11.91933648 -5 13 C-5.020625 14.27875 -5.04125 15.5575 -5.0625 16.875 C-5.07410156 17.59429687 -5.08570313 18.31359375 -5.09765625 19.0546875 C-5.12649242 21.08185404 -5.12649242 21.08185404 -4 23 C-5.32 22.34 -6.64 21.68 -8 21 C-8 18.03 -8 15.06 -8 12 C-6.865625 11.505 -5.73125 11.01 -4.5625 10.5 C-2.1805993 9.17458751 -1.1914084 8.569875 -0.3125 5.953125 C0.00182131 3.49839194 0.00182131 3.49839194 0 0 Z " fill="#E9F5FD" transform="translate(46,15)"></path>
<path d="M0 0 C0 0.66 0 1.32 0 2 C-0.73605469 2.36351562 -1.47210937 2.72703125 -2.23046875 3.1015625 C-8.1324513 6.14221401 -12.05069294 8.69311864 -16 14 C-16.99 14.33 -17.98 14.66 -19 15 C-16.27106209 8.30169786 -7.51884309 0 0 0 Z " fill="#46B3F9" transform="translate(23,1)"></path>
<path d="M0 0 C3 1 3 1 4.796875 3.35546875 C7.35783808 6.42953259 9.64466208 7.6273964 13.25 9.3125 C14.32765625 9.82425781 15.4053125 10.33601563 16.515625 10.86328125 C17.33546875 11.23839844 18.1553125 11.61351562 19 12 C18.67 12.66 18.34 13.32 18 14 C13.85006903 13.44221358 11.26858225 12.11074604 7.875 9.6875 C7.02679687 9.09324219 6.17859375 8.49898437 5.3046875 7.88671875 C3.08274005 6.06773466 1.52825873 4.42224015 0 2 C0 1.34 0 0.68 0 0 Z " fill="#3892F8" transform="translate(5,49)"></path>
<path d="M0 0 C0.33 0 0.66 0 1 0 C1.79048148 3.75478702 2.00172584 7.18670424 1.875 11 C1.80150296 15.44323001 2.80944113 18.09509071 5 22 C4.67 22.99 4.34 23.98 4 25 C1.04582052 21.275165 -0.13139205 18.52627864 -0.09765625 13.76953125 C-0.09282227 12.56586914 -0.09282227 12.56586914 -0.08789062 11.33789062 C-0.07951172 10.50451172 -0.07113281 9.67113281 -0.0625 8.8125 C-0.05798828 7.96751953 -0.05347656 7.12253906 -0.04882812 6.25195312 C-0.03705403 4.16793845 -0.0191189 2.08396023 0 0 Z " fill="#3994F5" transform="translate(0,23)"></path>
<path d="M0 0 C2.475 0.495 2.475 0.495 5 1 C5 3.64 5 6.28 5 9 C4.67 8.34 4.34 7.68 4 7 C3.34 7 2.68 7 2 7 C2 5.35 2 3.7 2 2 C1.34 2 0.68 2 0 2 C0 1.34 0 0.68 0 0 Z " fill="#A8D7F7" transform="translate(34,27)"></path>
<path d="M0 0 C0.66 0.66 1.32 1.32 2 2 C0.02 4.64 -1.96 7.28 -4 10 C-4.66 9.34 -5.32 8.68 -6 8 C-4.02 5.36 -2.04 2.72 0 0 Z " fill="#43B6F9" transform="translate(59,46)"></path>
<path d="M0 0 C2.475 0.495 2.475 0.495 5 1 C5 3.31 5 5.62 5 8 C4.01 7.67 3.02 7.34 2 7 C0.8125 3.4375 0.8125 3.4375 0 0 Z " fill="#9ED1F7" transform="translate(41,40)"></path>
<path d="M0 0 C1.32 0 2.64 0 4 0 C4 2.31 4 4.62 4 7 C3.34 7 2.68 7 2 7 C1.34 4.69 0.68 2.38 0 0 Z " fill="#9BD2F6" transform="translate(27,15)"></path>
</svg><style>@media (prefers-color-scheme: light) { :root { filter: none; } }
@media (prefers-color-scheme: dark) { :root { filter: none; } }
</style></svg>